HIERARCHY
ROOT Hips
{
	OFFSET -3.958830 18.904000 13.208200
	CHANNELS 6 Xposition Yposition Zposition Zrotation Yrotation Xrotation 
	JOINT LHipJoint
	{
		OFFSET 0.000000 0.000000 0.000000
		CHANNELS 3 Zrotation Yrotation Xrotation
		JOINT LeftUpLeg
		{
			OFFSET 1.800000 -1.400000 0.085000
			CHANNELS 3 Zrotation Yrotation Xrotation
			JOINT LeftLeg
			{
				OFFSET 2.215000 -6.000000 0.000000
				CHANNELS 3 Zrotation Yrotation Xrotation
				JOINT LeftFoot
				{
					OFFSET 2.500000 -6.900000 0.000000
					CHANNELS 3 Zrotation Yrotation Xrotation
					JOINT LeftToeBase
					{
						OFFSET 0.200000 -0.500000 1.950000
						CHANNELS 3 Zrotation Yrotation Xrotation
						End Site
						{
							OFFSET 0.000000 0.000000 0.000000
						}
					}
				}
			}
		}
	}
	JOINT RHipJoint
	{
		OFFSET 0.000000 0.000000 0.000000
		CHANNELS 3 Zrotation Yrotation Xrotation
		JOINT RightUpLeg
		{
			OFFSET -1.800000 -1.400000 0.085000
			CHANNELS 3 Zrotation Yrotation Xrotation
			JOINT RightLeg
			{
				OFFSET -2.215000 -6.000000 0.000000
				CHANNELS 3 Zrotation Yrotation Xrotation
				JOINT RightFoot
				{
					OFFSET -2.500000 -6.900000 0.000000
					CHANNELS 3 Zrotation Yrotation Xrotation
					JOINT RightToeBase
					{
						OFFSET -0.200000 -0.500000 1.950000
						CHANNELS 3 Zrotation Yrotation Xrotation
						End Site
						{
							OFFSET 0.000000 0.000000 0.000000
						}
					}
				}
			}
		}
	}
	JOINT LowerBack
	{
		OFFSET 0.000000 0.000000 0.000000
		CHANNELS 3 Zrotation Yrotation Xrotation
		JOINT Spine
		{
			OFFSET -0.087000 1.940000 -0.288900
			CHANNELS 3 Zrotation Yrotation Xrotation
			JOINT Spine1
			{
				OFFSET 0.000000 1.950000 0.060000
				CHANNELS 3 Zrotation Yrotation Xrotation
				JOINT Neck
				{
					OFFSET 0.000000 0.000000 0.000000
					CHANNELS 3 Zrotation Yrotation Xrotation
					JOINT Neck1
					{
						OFFSET 0.000000 1.600000 0.340000
						CHANNELS 3 Zrotation Yrotation Xrotation
						JOINT Head
						{
							OFFSET 0.000000 1.667000 -0.240000
							CHANNELS 3 Zrotation Yrotation Xrotation
							End Site
							{
								OFFSET 0.000000 0.000000 0.000000
							}
						}
					}
				}
				JOINT LeftShoulder
				{
					OFFSET 0.000000 0.000000 0.000000
					CHANNELS 3 Zrotation Yrotation Xrotation
					JOINT LeftArm
					{
						OFFSET 2.700000 1.550000 -0.730000
						CHANNELS 3 Zrotation Yrotation Xrotation
						JOINT LeftForeArm
						{
							OFFSET 5.450000 0.000000 0.000000
							CHANNELS 3 Zrotation Yrotation Xrotation
							JOINT LeftHand
							{
								OFFSET 3.450000 0.000000 0.000000
								CHANNELS 3 Zrotation Yrotation Xrotation
								JOINT LeftHandIndex1
								{
									OFFSET 0.750000 0.000000 0.000000
									CHANNELS 3 Zrotation Yrotation Xrotation
									End Site
									{
										OFFSET 0.000000 0.000000 0.000000
									}
								}
							}
						}
					}
				}
				JOINT RightShoulder
				{
					OFFSET 0.000000 0.000000 0.000000
					CHANNELS 3 Zrotation Yrotation Xrotation
					JOINT RightArm
					{
						OFFSET -2.700000 1.550000 -0.730000
						CHANNELS 3 Zrotation Yrotation Xrotation
						JOINT RightForeArm
						{
							OFFSET -5.450000 0.000000 0.000000
							CHANNELS 3 Zrotation Yrotation Xrotation
							JOINT RightHand
							{
								OFFSET -3.450000 0.000000 0.000000
								CHANNELS 3 Zrotation Yrotation Xrotation
								JOINT RightHandIndex1
								{
									OFFSET -0.750000 0.000000 0.000000
									CHANNELS 3 Zrotation Yrotation Xrotation
									End Site
									{
										OFFSET 0.000000 0.000000 0.000000
									}
								}
							}
						}
					}
				}
			}
		}
	}
}
MOTION
Frames: 13
Frame Time: 0.016667
0.476770 16.367730 -2.671530 -3.047552 22.975856 11.590031 -15.061062 9.544819 5.285863 -3.287522 -9.774687 -46.278967 -30.263593 19.921706 36.140250 0.944027 10.025988 1.130697 -0.278850 0.032410 -0.405360 18.859785 -10.109741 3.081956 9.284049 1.136448 -16.589239 10.696195 -2.627818 -4.103871 -0.043577 -2.811607 3.039813 0.176600 0.762010 0.115080 -4.621173 2.253857 -8.835007 3.552392 5.648258 16.564980 -8.092562 8.292372 11.759984 -2.288781 -2.157080 -11.468368 -2.138694 -8.586938 23.924154 -3.382740 -9.277060 -9.354990 -2.836731 -16.265373 6.002331 4.338034 -6.972576 -2.525204 18.968829 10.017228 -0.108945 -4.812935 2.535277 -0.094410 0.310790 -0.134910 0.039560 7.478547 24.042983 7.670801 40.250323 31.513313 -4.241053 1.496943 55.466224 -3.524748 2.067811 -1.393448 -0.282070 0.575030 0.414460 0.382630 
0.476390 16.372340 -2.671010 -4.162545 22.022220 11.169503 -15.021589 9.688889 5.158492 -4.919360 -10.341178 -44.079524 -26.700337 18.193863 36.892682 0.831399 9.491500 1.289154 -0.294050 -0.000970 -0.412710 18.884347 -10.163775 3.145436 10.206279 0.934905 -16.221486 10.148405 -2.629648 -4.361420 -0.050243 -2.772579 3.043787 0.139580 0.738770 0.112650 -4.742671 2.110476 -8.818409 4.727897 4.169899 17.143876 -9.837708 7.816870 11.819843 -2.217464 -3.211143 -11.856324 -3.937144 -8.265362 24.003380 -2.765340 -9.637160 -9.656240 -2.576428 -16.604225 6.241349 0.332845 -7.232253 -2.615892 20.331841 9.554470 -0.048928 -4.734378 2.616670 -0.079070 0.273640 -0.126450 0.028530 7.041294 24.720597 8.410404 41.146336 28.656916 -5.360663 3.264450 53.672734 -2.910675 2.125654 -1.389974 -0.268390 0.553460 0.422610 0.384800 
0.475990 16.366320 -2.669800 -5.414952 20.344172 10.627694 -14.980971 9.908754 4.969737 -6.801070 -10.333014 -41.664795 -22.083898 16.029227 37.333232 0.583919 8.810439 1.489355 -0.398210 -0.141140 -0.471880 18.900449 -10.235799 3.242613 11.500799 0.805642 -15.832775 9.869446 -2.739329 -4.275775 -0.023699 -2.734737 3.061567 0.071730 0.765230 0.092490 -4.850346 1.933319 -8.762473 6.089471 3.282092 17.735260 -11.649475 7.793950 11.209982 -2.013390 -4.571632 -11.991281 -6.408238 -7.729045 24.436667 -2.914570 -9.800180 -9.978410 -2.953007 -16.292966 5.899947 -3.067639 -8.425808 -2.480725 21.686832 7.460290 -0.312532 -4.676176 2.594155 -0.025850 0.267650 -0.152450 -0.020990 6.979586 24.927367 9.166032 42.208790 25.088643 -6.711897 6.130109 53.745742 -1.847423 2.142789 -1.313057 -0.327050 0.588900 0.515910 0.358660 
0.476410 16.357050 -2.664220 -6.030536 18.619589 10.970356 -14.955878 9.958872 4.871844 -8.754270 -10.619688 -40.009249 -19.260908 14.790922 38.153490 0.511419 8.404465 1.625725 -0.283810 -0.004900 -0.410760 18.929514 -10.231064 3.292038 11.834089 0.915102 -15.970880 10.871701 -2.687781 -4.544902 -0.084184 -2.731904 3.052462 0.138590 0.727810 0.091620 -4.918650 1.890803 -8.684273 6.420459 2.555263 17.642052 -13.221104 7.622932 10.708907 -1.824730 -5.369558 -11.501931 -7.532835 -7.507469 23.310297 -1.787520 -10.186910 -12.124240 -3.020578 -15.143263 5.036091 -6.003508 -10.572704 -2.130771 22.189933 5.429352 -0.591449 -4.548134 2.647652 -0.007900 0.221460 -0.102140 0.029350 6.576588 24.045498 9.218897 42.738132 22.767767 -6.723582 9.323907 52.401358 -0.563901 2.186149 -1.344761 -0.291710 0.604360 0.439490 0.376830 
0.469780 16.332650 -2.648460 -6.085045 16.192329 11.919093 -14.966855 10.004014 4.830756 -10.757854 -10.865670 -38.672201 -18.059578 14.088294 38.098635 0.436691 8.138006 1.725334 -0.227810 0.077090 -0.396050 18.926860 -10.167364 3.303097 11.876448 1.092505 -16.480080 12.175322 -2.678828 -4.391920 -0.102549 -2.713403 3.062202 0.202930 0.738870 0.058620 -4.874600 1.736330 -8.584889 5.316973 2.374829 17.010925 -14.297022 7.510112 9.650256 -1.874703 -6.350762 -10.827617 -8.764519 -7.555789 21.493261 -0.659690 -10.966780 -14.249670 -2.463220 -12.945232 3.836810 -10.058985 -12.824416 -1.522002 22.799078 2.795043 -0.953575 -4.461761 2.631122 0.006430 0.199070 -0.090730 0.060780 5.985466 22.337610 9.114773 43.258045 20.305458 -6.271693 13.653473 50.604008 1.164443 2.224208 -1.326994 -0.307170 0.677270 0.415690 0.392750 
0.453330 16.318180 -2.621570 -6.701824 13.634835 12.634900 -14.967245 10.120731 4.735649 -11.934293 -10.632425 -37.573919 -16.072666 12.941606 37.443088 0.251400 7.788990 1.846343 -0.316840 -0.008030 -0.477570 18.927994 -10.126441 3.323537 12.407215 1.229357 -16.828756 12.640972 -2.762980 -3.996857 -0.041830 -2.749318 3.055041 0.205060 0.846260 0.075680 -4.863639 1.510854 -8.456572 5.131167 2.414812 15.866825 -15.327231 7.823094 9.159003 -2.051765 -7.615853 -10.678163 -10.573615 -7.115312 19.964577 -2.559990 -10.917810 -13.068700 -1.797349 -11.735895 3.038504 -12.923982 -15.581509 -0.234942 20.094892 2.396401 -1.085221 -4.610399 2.526121 -0.036650 0.297480 -0.163000 0.033460 5.678027 21.696849 9.451725 42.677703 17.237259 -6.279005 17.436177 48.222353 2.422929 2.198696 -1.298409 -0.361620 0.736280 0.519550 0.394860 
0.437350 16.292830 -2.604730 -7.244727 11.684801 13.740150 -15.009029 10.241058 4.686791 -13.082257 -10.642429 -37.067133 -13.649968 11.299545 36.138936 0.146387 7.068460 2.082490 -0.205650 0.127330 -0.461950 18.899276 -9.995137 3.343244 13.277012 1.425025 -17.466647 13.468468 -2.734999 -3.643599 -0.052698 -2.756752 3.029067 0.274200 0.835040 0.122010 -4.752661 1.095582 -8.328291 4.226543 2.213376 14.491822 -15.670902 7.370508 8.281562 -2.324078 -8.411484 -10.307472 -11.652862 -6.625018 18.202944 -1.891350 -11.257830 -12.521590 -1.133022 -10.051089 2.200564 -16.696004 -18.355512 1.020388 18.220126 3.625303 -0.901750 -4.620234 2.662439 -0.114450 0.306790 -0.165830 0.089690 5.475596 19.999783 9.248845 41.696201 14.490072 -5.759942 21.635540 46.238296 3.761686 2.242685 -1.441146 -0.277540 0.671000 0.453880 0.438520 
0.410490 16.293450 -2.625220 -7.882924 8.738932 12.928779 -15.024680 10.541268 4.536874 -13.415091 -9.846894 -35.355930 -11.983249 10.097447 34.082566 0.002084 6.434564 2.304402 -0.282440 0.052190 -0.504290 18.855907 -9.967662 3.378427 13.645947 1.165283 -16.469727 13.923688 -3.028845 -2.633832 -0.044792 -2.834091 3.013431 0.234290 0.844330 0.094230 -4.670096 0.569018 -8.244757 3.647996 1.537452 15.057502 -16.921840 7.561065 9.423741 -1.722021 -9.507211 -11.921511 -13.980610 -4.824974 17.983569 -2.937500 -9.805470 -11.503140 -0.180819 -12.136239 3.777575 -18.530940 -16.948609 1.271670 16.385203 5.211707 -0.641984 -4.634743 2.633005 -0.107540 0.317620 -0.185200 0.065120 3.730760 22.582582 10.255829 40.176332 12.869597 -6.850109 22.755372 44.377315 3.608781 2.244328 -1.400882 -0.315510 0.672370 0.485740 0.425180 
0.371530 16.304980 -2.649190 -8.251569 4.826497 12.160992 -15.058775 10.806382 4.406923 -12.947038 -9.103231 -34.169313 -11.474233 9.521553 32.249912 -0.064659 5.942798 2.462872 -0.162780 0.208760 -0.425470 18.794290 -9.958890 3.402661 14.129836 0.717614 -15.246576 13.613383 -3.184336 -1.973283 -0.119839 -2.849363 3.000907 0.302010 0.770130 0.071290 -4.519744 0.139887 -8.158089 1.026955 1.237314 15.950129 -16.817472 7.500696 9.957351 -1.581400 -10.183122 -12.743509 -15.266410 -3.003951 16.902940 -1.850980 -8.704770 -13.649940 0.105855 -12.946564 4.692834 -20.730836 -15.280665 1.262782 15.973498 5.838084 -0.454534 -4.513169 2.679547 -0.076130 0.248540 -0.114040 0.106600 3.442542 23.884621 10.567202 36.469559 11.835844 -7.076445 26.676211 42.665997 4.467820 2.283586 -1.421399 -0.278450 0.676030 0.388170 0.433770 
0.359150 16.311290 -2.672040 -8.819346 0.843303 11.980084 -15.092957 10.997511 4.327006 -12.391304 -8.596222 -33.812144 -10.617915 8.903033 30.840657 -0.154129 5.522567 2.600319 -0.042770 0.328700 -0.310930 18.736983 -9.971645 3.420717 14.831396 0.484929 -14.680115 12.861947 -3.351961 -0.760586 -0.180789 -2.804353 2.995796 0.354830 0.697900 0.071730 -4.374052 -0.112264 -8.074786 -0.911481 1.368290 16.161888 -17.568753 7.562748 9.595487 -0.686183 -10.373204 -12.879224 -15.704624 -2.058587 16.319655 -1.480940 -7.869560 -15.606640 -1.299680 -12.717286 4.189740 -21.250201 -15.717701 1.217272 16.017180 7.158875 -0.310265 -4.443768 2.693452 -0.018990 0.186950 -0.039360 0.139190 3.132529 23.836407 10.783447 34.490427 10.524602 -6.818726 24.429778 39.902908 3.501976 2.293645 -1.400665 -0.255050 0.675530 0.297290 0.420370 
0.331270 16.317160 -2.676490 -9.205624 -4.020024 12.501888 -15.129928 11.173509 4.255291 -11.371444 -8.089638 -33.913194 -10.739142 8.671813 29.163731 -0.239188 5.164391 2.661714 0.122180 0.504110 -0.219620 18.679958 -9.974103 3.415409 15.490658 0.257308 -14.422099 11.564317 -3.409792 0.538841 -0.229327 -2.728860 2.965625 0.443000 0.589250 0.074110 -4.220730 -0.361287 -7.964712 -3.924235 2.132356 15.466577 -17.547719 7.680391 8.075034 -0.734866 -10.683584 -12.449841 -16.308245 -0.531750 15.216623 0.841760 -7.361640 -18.079100 -2.115325 -11.088036 3.294495 -22.914865 -16.558004 1.487118 16.338855 7.893521 -0.199054 -4.335841 2.815927 0.023260 0.091450 0.019390 0.160100 4.017701 22.328409 10.362155 32.245592 9.302898 -6.126532 25.158003 37.967800 3.633223 2.328996 -1.455362 -0.193540 0.625650 0.222610 0.412150 
0.316300 16.325070 -2.685500 -9.258599 -7.945149 11.819416 -15.170865 11.437215 4.169488 -10.732298 -7.587795 -32.711474 -10.791630 8.549577 28.088202 -0.266405 5.042505 2.700501 0.055110 0.440280 -0.252700 18.612360 -9.925912 3.417540 15.211573 -0.130266 -13.056718 11.359042 -3.612658 1.095211 -0.244204 -2.823414 2.937381 0.398990 0.592780 0.084380 -4.047387 -0.867811 -7.900764 -6.340689 1.854534 15.706447 -18.713676 7.447589 8.060771 0.258962 -11.155798 -13.626132 -17.681409 1.386451 14.292276 -0.355450 -5.647690 -17.872180 -1.983873 -11.599721 3.981174 -24.323828 -14.673779 1.151763 16.782353 7.821902 -0.122863 -4.350241 2.809116 0.031230 0.110020 0.020900 0.126280 2.305756 23.061926 10.977464 31.539495 7.099886 -7.594734 25.898294 39.666128 3.959029 2.275565 -1.454431 -0.203350 0.616180 0.267480 0.397320 
0.320420 16.349150 -2.710780 -10.081598 -12.211901 10.358677 -15.151490 11.731422 3.973487 -9.173964 -6.542641 -30.497806 -11.563161 8.537369 26.317944 -0.281782 4.963310 2.717926 0.054710 0.389620 -0.210860 18.590813 -9.971244 3.462014 15.355326 -0.673506 -10.809591 10.083944 -3.855486 2.096732 -0.303814 -2.971078 2.855563 0.352410 0.565640 0.158520 -4.018267 -1.216553 -7.819521 -6.984041 1.012085 16.330040 -21.068085 7.887804 9.818488 1.711681 -11.500633 -15.649284 -19.054442 3.438502 13.533176 -1.372570 -3.760000 -17.663780 -1.749244 -14.340336 5.452780 -24.583345 -12.344236 0.653212 16.634634 9.372271 -0.009453 -4.386182 2.874729 0.056800 0.112270 0.048840 0.101280 -0.290821 26.041418 12.171891 30.781047 5.795016 -9.353510 24.986374 40.423415 3.425148 2.192464 -1.487496 -0.172580 0.548850 0.285200 0.368830 
